<svg width="40" height="41" viewBox="0 0 40 41" fill="none" xmlns="http://www.w3.org/2000/svg">
<path d="M5.00004 5.33398H35C35.4421 5.33398 35.866 5.50958 36.1786 5.82214C36.4911 6.1347 36.6667 6.55862 36.6667 7.00065V33.6673C36.6667 34.1093 36.4911 34.5333 36.1786 34.8458C35.866 35.1584 35.4421 35.334 35 35.334H5.00004C4.55801 35.334 4.13409 35.1584 3.82153 34.8458C3.50897 34.5333 3.33337 34.1093 3.33337 33.6673V7.00065C3.33337 6.55862 3.50897 6.1347 3.82153 5.82214C4.13409 5.50958 4.55801 5.33398 5.00004 5.33398ZM33.3334 18.6673H6.66671V32.0007H33.3334V18.6673ZM33.3334 15.334V8.66732H6.66671V15.334H33.3334ZM23.3334 25.334H30V28.6673H23.3334V25.334Z" fill="#00C6BD"/>
</svg>
