<svg width="65" height="65" viewBox="0 0 65 65" fill="none" xmlns="http://www.w3.org/2000/svg">
<path d="M47.1887 16.2968L51.0634 12.4222L54.834 16.1928L50.9594 20.0675C54.7881 24.8599 56.6365 30.9365 56.1249 37.0492C55.6133 43.1619 52.7807 48.8467 48.2087 52.9361C43.6366 57.0255 37.6723 59.2091 31.5406 59.0384C25.409 58.8677 19.5754 56.3557 15.2379 52.0182C10.9005 47.6808 8.38849 41.8472 8.2178 35.7155C8.0471 29.5839 10.2307 23.6195 14.3201 19.0475C18.4095 14.4755 24.0943 11.6428 30.207 11.1313C36.3197 10.6197 42.3962 12.4681 47.1887 16.2968ZM29.5407 21.7155V37.7155H34.874V21.7155H29.5407ZM21.5407 3.04883H42.874V8.38216H21.5407V3.04883Z" fill="#012239"/>
</svg>
