<svg width="51" height="51" viewBox="0 0 51 51" fill="none" xmlns="http://www.w3.org/2000/svg">
<path d="M0.191406 45.4922H50.1914V50.4922H0.191406V45.4922ZM5.19141 25.4922H10.1914V42.9922H5.19141V25.4922ZM17.6914 25.4922H22.6914V42.9922H17.6914V25.4922ZM27.6914 25.4922H32.6914V42.9922H27.6914V25.4922ZM40.1914 25.4922H45.1914V42.9922H40.1914V25.4922ZM0.191406 12.9922L25.1914 0.492188L50.1914 12.9922V22.9922H0.191406V12.9922ZM25.1914 15.4922C25.8544 15.4922 26.4903 15.2288 26.9592 14.76C27.428 14.2911 27.6914 13.6552 27.6914 12.9922C27.6914 12.3291 27.428 11.6933 26.9592 11.2244C26.4903 10.7556 25.8544 10.4922 25.1914 10.4922C24.5284 10.4922 23.8925 10.7556 23.4236 11.2244C22.9548 11.6933 22.6914 12.3291 22.6914 12.9922C22.6914 13.6552 22.9548 14.2911 23.4236 14.76C23.8925 15.2288 24.5284 15.4922 25.1914 15.4922Z" fill="white"/>
</svg>
