<svg width="69" height="68" viewBox="0 0 69 68" fill="none" xmlns="http://www.w3.org/2000/svg">
<path d="M60 56.7577C60 57.4981 59.7015 58.2081 59.1701 58.7317C58.6388 59.2552 57.9181 59.5493 57.1667 59.5493H11.8333C11.0819 59.5493 10.3612 59.2552 9.82986 58.7317C9.29851 58.2081 9 57.4981 9 56.7577V27.4173C8.9997 26.9918 9.09808 26.572 9.28763 26.1898C9.47718 25.8075 9.75287 25.473 10.0937 25.2118L32.7603 7.84209C33.2577 7.46088 33.8699 7.25391 34.5 7.25391C35.1301 7.25391 35.7423 7.46088 36.2397 7.84209L58.9063 25.2118C59.2471 25.473 59.5228 25.8075 59.7124 26.1898C59.9019 26.572 60.0003 26.9918 60 27.4173V56.7577Z" fill="#31EB0A"/>
</svg>
