<svg width="191" height="191" viewBox="0 0 191 191" fill="none" xmlns="http://www.w3.org/2000/svg">
<g filter="url(#filter0_d_527_7005)">
<circle cx="95.5" cy="80.6782" r="70" fill="#31EB0A"/>
<circle cx="95.5" cy="80.6782" r="72.5" stroke="white" stroke-width="5"/>
</g>
<g clip-path="url(#clip0_527_7005)">
<path d="M86.9356 54.4282H104.063L109.773 60.2616H121.191C121.948 60.2616 122.674 60.5688 123.209 61.1158C123.745 61.6628 124.046 62.4047 124.046 63.1782V104.012C124.046 104.785 123.745 105.527 123.209 106.074C122.674 106.621 121.948 106.928 121.191 106.928H69.808C69.0509 106.928 68.3248 106.621 67.7895 106.074C67.2541 105.527 66.9534 104.785 66.9534 104.012V63.1782C66.9534 62.4047 67.2541 61.6628 67.7895 61.1158C68.3248 60.5688 69.0509 60.2616 69.808 60.2616H81.2264L86.9356 54.4282ZM95.4995 101.095C100.042 101.095 104.398 99.2511 107.611 95.9693C110.823 92.6874 112.627 88.2362 112.627 83.5949C112.627 78.9536 110.823 74.5024 107.611 71.2205C104.398 67.9386 100.042 66.0949 95.4995 66.0949C90.9569 66.0949 86.6004 67.9386 83.3884 71.2205C80.1763 74.5024 78.3718 78.9536 78.3718 83.5949C78.3718 88.2362 80.1763 92.6874 83.3884 95.9693C86.6004 99.2511 90.9569 101.095 95.4995 101.095ZM95.4995 95.2616C92.4711 95.2616 89.5668 94.0324 87.4254 91.8445C85.284 89.6565 84.081 86.6891 84.081 83.5949C84.081 80.5007 85.284 77.5332 87.4254 75.3453C89.5668 73.1574 92.4711 71.9282 95.4995 71.9282C98.5278 71.9282 101.432 73.1574 103.574 75.3453C105.715 77.5332 106.918 80.5007 106.918 83.5949C106.918 86.6891 105.715 89.6565 103.574 91.8445C101.432 94.0324 98.5278 95.2616 95.4995 95.2616Z" fill="#012239"/>
</g>
<defs>
<filter id="filter0_d_527_7005" x="0.5" y="0.678223" width="190" height="190" filterUnits="userSpaceOnUse" color-interpolation-filters="sRGB">
<feFlood flood-opacity="0" result="BackgroundImageFix"/>
<feColorMatrix in="SourceAlpha" type="matrix" values="0 0 0 0 0 0 0 0 0 0 0 0 0 0 0 0 0 0 127 0" result="hardAlpha"/>
<feOffset dy="15"/>
<feGaussianBlur stdDeviation="10"/>
<feComposite in2="hardAlpha" operator="out"/>
<feColorMatrix type="matrix" values="0 0 0 0 0.946528 0 0 0 0 0.956597 0 0 0 0 0.966667 0 0 0 1 0"/>
<feBlend mode="normal" in2="BackgroundImageFix" result="effect1_dropShadow_527_7005"/>
<feBlend mode="normal" in="SourceGraphic" in2="effect1_dropShadow_527_7005" result="shape"/>
</filter>
<clipPath id="clip0_527_7005">
<rect width="68.5106" height="70" fill="white" transform="translate(61.2441 45.6782)"/>
</clipPath>
</defs>
</svg>
