<svg width="26" height="25" viewBox="0 0 26 25" fill="none" xmlns="http://www.w3.org/2000/svg">
<path d="M3.07152 24.0296L3.07162 24.0295L12.6289 14.4736L3.07152 24.0296ZM3.07152 24.0296C2.87502 24.2262 2.60847 24.3367 2.33051 24.3367C2.05255 24.3368 1.78595 24.2265 1.58936 24.03C1.39277 23.8335 1.28229 23.567 1.28223 23.289C1.28216 23.0111 1.39249 22.7446 1.58896 22.548C1.58898 22.548 1.58899 22.5479 1.58901 22.5479L11.1452 12.99L3.07152 24.0296ZM23.2596 24.0316L23.2597 24.0317C23.357 24.129 23.4725 24.2062 23.5996 24.2589C23.7268 24.3116 23.863 24.3388 24.0007 24.3388C24.1383 24.3388 24.2746 24.3118 24.4018 24.2591C24.5289 24.2065 24.6445 24.1293 24.7418 24.032C24.8392 23.9347 24.9164 23.8192 24.9691 23.6921C25.0218 23.565 25.0489 23.4287 25.049 23.2911C25.049 23.1535 25.0219 23.0172 24.9693 22.89C24.9166 22.7629 24.8395 22.6473 24.7422 22.55L15.1859 12.99L23.2596 24.0316ZM23.2596 24.0316L13.7022 14.4736M23.2596 24.0316L13.7022 14.4736M23.2598 0.878002L23.2596 0.87829L13.7022 10.4331C13.7022 10.4332 13.7022 10.4332 13.7022 10.4332L13.7018 10.4336L23.2598 0.878002ZM23.2598 0.878002C23.4564 0.681191 23.7231 0.570509 24.0012 0.570313C24.2794 0.570116 24.5462 0.680421 24.743 0.876953C24.9399 1.07349 25.0505 1.34015 25.0507 1.61827C25.0509 1.89639 24.9406 2.16319 24.7441 2.36C24.7441 2.36001 24.7441 2.36002 24.7441 2.36003L15.1859 11.9167L23.2598 0.878002ZM13.7022 14.4736C13.6318 14.403 13.5482 14.347 13.4561 14.3088C13.364 14.2706 13.2653 14.2509 13.1656 14.2509C13.0659 14.2509 12.9672 14.2706 12.8751 14.3088C12.7832 14.3469 12.6997 14.4028 12.6294 14.4732L13.7022 14.4736ZM3.07164 0.87829L12.6289 10.4331L11.1457 11.9172L11.1453 11.9167C11.1452 11.9167 11.1452 11.9167 11.1452 11.9167L1.58901 2.35986C1.58899 2.35984 1.58896 2.35982 1.58894 2.3598C1.39249 2.16322 1.28216 1.89667 1.28223 1.61877C1.28229 1.34083 1.39277 1.07431 1.58936 0.877819C1.78595 0.68133 2.05255 0.570977 2.33051 0.571042C2.46814 0.571075 2.60442 0.598215 2.73156 0.650912C2.85871 0.703609 2.97422 0.780831 3.07152 0.878168L3.07164 0.87829ZM15.0211 12.7439C15.0593 12.8358 15.1151 12.9192 15.1854 12.9895L15.1855 11.9172C15.1151 11.9875 15.0593 12.071 15.0211 12.1629C14.9829 12.255 14.9633 12.3537 14.9633 12.4534C14.9633 12.5531 14.9829 12.6518 15.0211 12.7439Z" fill="#4B5563" stroke="#4B5563"/>
</svg>
