<svg width="54" height="55" viewBox="0 0 54 55" fill="none" xmlns="http://www.w3.org/2000/svg">
<path d="M5.69198 16.9609H48.3586V51.6276C48.3586 52.3349 48.0777 53.0131 47.5776 53.5132C47.0775 54.0133 46.3992 54.2943 45.692 54.2943H8.35864C7.6514 54.2943 6.97312 54.0133 6.47303 53.5132C5.97293 53.0131 5.69198 52.3349 5.69198 51.6276V16.9609ZM13.692 8.96094V3.6276C13.692 2.92036 13.9729 2.24208 14.473 1.74199C14.9731 1.24189 15.6514 0.960938 16.3586 0.960938H37.692C38.3992 0.960938 39.0775 1.24189 39.5776 1.74199C40.0777 2.24208 40.3586 2.92036 40.3586 3.6276V8.96094H53.692V14.2943H0.358643V8.96094H13.692ZM19.0253 6.29427V8.96094H35.0253V6.29427H19.0253ZM19.0253 27.6276V43.6276H24.3586V27.6276H19.0253ZM29.692 27.6276V43.6276H35.0253V27.6276H29.692Z" fill="#012239"/>
</svg>
