<svg width="41" height="41" viewBox="0 0 41 41" fill="none" xmlns="http://www.w3.org/2000/svg">
<path d="M35.4458 27.81V33.7034C35.446 34.1253 35.2861 34.5317 34.9985 34.8404C34.7108 35.1491 34.3167 35.3372 33.8958 35.3667C33.1675 35.4167 32.5725 35.4434 32.1125 35.4434C17.3841 35.4434 5.4458 23.505 5.4458 8.77669C5.4458 8.31669 5.4708 7.72169 5.52247 6.99336C5.552 6.57243 5.7401 6.17838 6.04881 5.89071C6.35751 5.60304 6.76384 5.44317 7.1858 5.44336H13.0791C13.2859 5.44315 13.4853 5.51979 13.6387 5.65839C13.7921 5.797 13.8885 5.98766 13.9091 6.19336C13.9475 6.57669 13.9825 6.88169 14.0158 7.11336C14.347 9.4249 15.0258 11.6731 16.0291 13.7817C16.1875 14.115 16.0841 14.5134 15.7841 14.7267L12.1875 17.2967C14.3866 22.4208 18.47 26.5043 23.5941 28.7034L26.1608 25.1134C26.2657 24.9667 26.4188 24.8615 26.5933 24.8161C26.7678 24.7707 26.9527 24.788 27.1158 24.865C29.2242 25.8665 31.4718 26.5436 33.7825 26.8734C34.0141 26.9067 34.3191 26.9434 34.6991 26.98C34.9045 27.0011 35.0948 27.0976 35.2331 27.251C35.3713 27.4043 35.4477 27.6036 35.4475 27.81H35.4458Z" fill="#4B6273"/>
</svg>
