<svg width="196" height="81" viewBox="0 0 196 81" fill="none" xmlns="http://www.w3.org/2000/svg">
<rect x="0.642456" y="0.098877" width="194.715" height="80" rx="40" fill="#2D2D2D"/>
<path d="M61.2999 22.0189V50.5939C61.2999 52.0639 61.3599 53.3989 61.4799 54.5989H55.7649C55.6149 53.8489 55.5399 52.9939 55.5399 52.0339C55.0299 52.9639 54.2199 53.7139 53.1099 54.2839C52.0299 54.8539 50.7699 55.1389 49.3299 55.1389C46.1799 55.1389 43.5849 54.0439 41.5449 51.8539C39.5349 49.6339 38.5299 46.8439 38.5299 43.4839C38.5299 40.2139 39.5199 37.4689 41.4999 35.2489C43.5099 33.0289 46.0599 31.9189 49.1499 31.9189C52.3299 31.9189 54.4149 32.8339 55.4049 34.6639V22.0189H61.2999ZM44.5599 43.4839C44.5599 45.4339 45.0699 46.9789 46.0899 48.1189C47.1099 49.2289 48.4299 49.7839 50.0499 49.7839C51.6399 49.7839 52.9449 49.2139 53.9649 48.0739C54.9849 46.9339 55.4949 45.3889 55.4949 43.4389C55.4949 41.5189 54.9849 40.0189 53.9649 38.9389C52.9449 37.8289 51.6399 37.2739 50.0499 37.2739C48.4599 37.2739 47.1399 37.8289 46.0899 38.9389C45.0699 40.0489 44.5599 41.5639 44.5599 43.4839ZM80.8425 32.3689V38.3989C80.2425 38.2789 79.6425 38.2189 79.0425 38.2189C77.3325 38.2189 75.9525 38.7139 74.9025 39.7039C73.8525 40.6639 73.3275 42.2539 73.3275 44.4739V54.5989H67.3425V32.4589H73.1475V35.7439C74.2275 33.4339 76.3275 32.2789 79.4475 32.2789C79.7775 32.2789 80.2425 32.3089 80.8425 32.3689ZM90.5875 54.5989H84.6025V32.4589H90.5875V54.5989ZM83.8825 25.2139C83.8825 24.1939 84.2425 23.3239 84.9625 22.6039C85.6825 21.8539 86.5525 21.4789 87.5725 21.4789C88.5925 21.4789 89.4625 21.8389 90.1825 22.5589C90.9025 23.2789 91.2625 24.1639 91.2625 25.2139C91.2625 26.2039 90.9025 27.0589 90.1825 27.7789C89.4625 28.4989 88.5925 28.8589 87.5725 28.8589C86.5525 28.8589 85.6825 28.4989 84.9625 27.7789C84.2425 27.0589 83.8825 26.2039 83.8825 25.2139ZM117.425 32.4589L108.83 54.5989H102.845L93.8001 32.4589H100.37L105.86 47.3089L111.125 32.4589H117.425ZM124.322 41.0089H134.222C134.162 39.7789 133.712 38.7439 132.872 37.9039C132.062 37.0639 130.862 36.6439 129.272 36.6439C127.832 36.6439 126.662 37.0939 125.762 37.9939C124.862 38.8939 124.382 39.8989 124.322 41.0089ZM134.807 46.7689L139.802 48.2539C139.202 50.2939 138.017 51.9739 136.247 53.2939C134.507 54.6139 132.332 55.2739 129.722 55.2739C126.542 55.2739 123.842 54.2089 121.622 52.0789C119.402 49.9189 118.292 47.0389 118.292 43.4389C118.292 40.0189 119.372 37.2289 121.532 35.0689C123.692 32.8789 126.242 31.7839 129.182 31.7839C132.602 31.7839 135.272 32.8039 137.192 34.8439C139.142 36.8839 140.117 39.6889 140.117 43.2589C140.117 43.4989 140.102 43.7689 140.072 44.0689C140.072 44.3689 140.072 44.6089 140.072 44.7889L140.027 45.1039H124.187C124.247 46.5439 124.817 47.7439 125.897 48.7039C126.977 49.6639 128.267 50.1439 129.767 50.1439C132.317 50.1439 133.997 49.0189 134.807 46.7689ZM157.88 32.3689V38.3989C157.28 38.2789 156.68 38.2189 156.08 38.2189C154.37 38.2189 152.99 38.7139 151.94 39.7039C150.89 40.6639 150.365 42.2539 150.365 44.4739V54.5989H144.38V32.4589H150.185V35.7439C151.265 33.4339 153.365 32.2789 156.485 32.2789C156.815 32.2789 157.28 32.3089 157.88 32.3689Z" fill="#F9FCFF"/>
</svg>
