<svg width="48" height="43" viewBox="0 0 48 43" fill="none" xmlns="http://www.w3.org/2000/svg">
<path d="M0.666626 14.9844H45C45.6188 14.9844 46.2123 15.2302 46.6499 15.6678C47.0875 16.1054 47.3333 16.6989 47.3333 17.3177V40.651C47.3333 41.2699 47.0875 41.8634 46.6499 42.301C46.2123 42.7385 45.6188 42.9844 45 42.9844H2.99996C2.38112 42.9844 1.78763 42.7385 1.35004 42.301C0.912459 41.8634 0.666626 41.2699 0.666626 40.651V14.9844ZM2.99996 0.984375H38V10.3177H0.666626V3.31771C0.666626 2.69887 0.912459 2.10538 1.35004 1.66779C1.78763 1.23021 2.38112 0.984375 2.99996 0.984375ZM31 26.651V31.3177H38V26.651H31Z" fill="white"/>
</svg>
