<svg width="55" height="54" viewBox="0 0 55 54" fill="none" xmlns="http://www.w3.org/2000/svg">
<path d="M11.8026 42.7201C12.3536 41.1587 13.3753 39.8066 14.7269 38.8502C16.0785 37.8938 17.6935 37.3802 19.3493 37.3802C21.0051 37.3802 22.6201 37.8938 23.9717 38.8502C25.3233 39.8066 26.345 41.1587 26.896 42.7201H54.016V48.0534H26.896C26.345 49.6148 25.3233 50.9669 23.9717 51.9233C22.6201 52.8797 21.0051 53.3933 19.3493 53.3933C17.6935 53.3933 16.0785 52.8797 14.7269 51.9233C13.3753 50.9669 12.3536 49.6148 11.8026 48.0534H0.682617V42.7201H11.8026ZM27.8026 24.0534C28.3536 22.492 29.3753 21.1399 30.7269 20.1835C32.0785 19.2271 33.6935 18.7135 35.3493 18.7135C37.0051 18.7135 38.6201 19.2271 39.9717 20.1835C41.3233 21.1399 42.345 22.492 42.896 24.0534H54.016V29.3867H42.896C42.345 30.9482 41.3233 32.3003 39.9717 33.2566C38.6201 34.213 37.0051 34.7266 35.3493 34.7266C33.6935 34.7266 32.0785 34.213 30.7269 33.2566C29.3753 32.3003 28.3536 30.9482 27.8026 29.3867H0.682617V24.0534H27.8026ZM11.8026 5.38674C12.3536 3.82532 13.3753 2.47323 14.7269 1.51685C16.0785 0.560464 17.6935 0.046875 19.3493 0.046875C21.0051 0.046875 22.6201 0.560464 23.9717 1.51685C25.3233 2.47323 26.345 3.82532 26.896 5.38674H54.016V10.7201H26.896C26.345 12.2815 25.3233 13.6336 23.9717 14.59C22.6201 15.5464 21.0051 16.0599 19.3493 16.0599C17.6935 16.0599 16.0785 15.5464 14.7269 14.59C13.3753 13.6336 12.3536 12.2815 11.8026 10.7201H0.682617V5.38674H11.8026ZM19.3493 10.7201C20.0565 10.7201 20.7348 10.4391 21.2349 9.93903C21.735 9.43893 22.016 8.76065 22.016 8.05341C22.016 7.34617 21.735 6.66789 21.2349 6.16779C20.7348 5.6677 20.0565 5.38674 19.3493 5.38674C18.642 5.38674 17.9638 5.6677 17.4637 6.16779C16.9636 6.66789 16.6826 7.34617 16.6826 8.05341C16.6826 8.76065 16.9636 9.43893 17.4637 9.93903C17.9638 10.4391 18.642 10.7201 19.3493 10.7201ZM35.3493 29.3867C36.0565 29.3867 36.7348 29.1058 37.2349 28.6057C37.735 28.1056 38.016 27.4273 38.016 26.7201C38.016 26.0128 37.735 25.3346 37.2349 24.8345C36.7348 24.3344 36.0565 24.0534 35.3493 24.0534C34.642 24.0534 33.9638 24.3344 33.4637 24.8345C32.9636 25.3346 32.6826 26.0128 32.6826 26.7201C32.6826 27.4273 32.9636 28.1056 33.4637 28.6057C33.9638 29.1058 34.642 29.3867 35.3493 29.3867ZM19.3493 48.0534C20.0565 48.0534 20.7348 47.7725 21.2349 47.2724C21.735 46.7723 22.016 46.094 22.016 45.3867C22.016 44.6795 21.735 44.0012 21.2349 43.5011C20.7348 43.001 20.0565 42.7201 19.3493 42.7201C18.642 42.7201 17.9638 43.001 17.4637 43.5011C16.9636 44.0012 16.6826 44.6795 16.6826 45.3867C16.6826 46.094 16.9636 46.7723 17.4637 47.2724C17.9638 47.7725 18.642 48.0534 19.3493 48.0534Z" fill="#082141"/>
</svg>
