<svg width="68" height="61" viewBox="0 0 68 61" fill="none" xmlns="http://www.w3.org/2000/svg">
<path d="M10.0934 60.0078L10.0267 60.0745L9.95675 60.0078H3.97342C3.09613 60.0069 2.25507 59.6578 1.63505 59.0372C1.01502 58.4165 0.666748 57.5751 0.666748 56.6978V3.31781C0.672848 2.44241 1.02308 1.60454 1.64179 0.985205C2.2605 0.365872 3.09802 0.0147947 3.97342 0.0078125H64.0267C65.8534 0.0078125 67.3334 1.49115 67.3334 3.31781V56.6978C67.3273 57.5732 66.9771 58.4111 66.3584 59.0304C65.7397 59.6497 64.9021 60.0008 64.0267 60.0078H10.0934ZM60.6668 40.0078V6.67448H7.33342V53.3411L40.6667 20.0078L60.6668 40.0078ZM60.6668 49.4345L40.6667 29.4345L16.7601 53.3411H60.6668V49.4345ZM20.6667 26.6745C18.8986 26.6745 17.2029 25.9721 15.9527 24.7219C14.7025 23.4716 14.0001 21.7759 14.0001 20.0078C14.0001 18.2397 14.7025 16.544 15.9527 15.2938C17.2029 14.0435 18.8986 13.3411 20.6667 13.3411C22.4349 13.3411 24.1306 14.0435 25.3808 15.2938C26.631 16.544 27.3334 18.2397 27.3334 20.0078C27.3334 21.7759 26.631 23.4716 25.3808 24.7219C24.1306 25.9721 22.4349 26.6745 20.6667 26.6745Z" fill="white"/>
</svg>
