<svg width="54" height="59" viewBox="0 0 54 59" fill="none" xmlns="http://www.w3.org/2000/svg">
<path d="M18.7954 4.92805C21.8615 4.18459 23.9453 1.64487 26.7184 0.326172C26.7021 1.38439 26.6858 2.4426 26.6804 3.50081C24.3252 5.29707 21.8235 7.03905 18.9039 7.74453C13.6508 9.16091 8.18065 7.98331 3.08494 6.50181C2.88958 13.9202 3.79584 21.3439 5.65722 28.5235C10.08 28.6972 14.5028 28.5832 18.9256 28.6266C19.4791 30.4717 19.935 32.4905 21.3622 33.8906C22.7569 35.3504 24.7973 35.8116 26.6696 36.3435C26.7727 42.8284 26.6858 49.3134 26.7455 55.8038C26.7347 56.5635 26.7293 57.3287 26.7184 58.0939C26.2843 58.0884 25.4268 58.0776 24.9981 58.0721C16.7441 54.2843 10.5304 46.9256 6.63945 38.8506C1.31039 27.5793 -0.171107 14.859 0.409555 2.51315C6.19989 4.7164 12.6089 6.80028 18.7954 4.92805Z" fill="#19303E"/>
<path d="M26.7183 0.326172C29.5619 1.77511 31.8195 4.32568 35.0321 5.04201C41.1426 6.74601 47.3345 4.56446 53.0652 2.54028C53.5861 16.0583 51.8279 30.1407 45.0716 42.0795C41.4194 48.4722 36.1392 54.0347 29.6271 57.5403C28.2161 58.3381 26.5555 58.3598 24.998 58.0721C25.4268 58.0776 26.2842 58.0884 26.7183 58.0939C26.7292 57.3287 26.7346 56.5635 26.7455 55.8038C37.6641 50.936 44.6917 39.9143 47.5841 28.6375C43.221 28.5887 38.8579 28.7298 34.5003 28.5561C33.8979 26.7001 33.4421 24.6597 31.9985 23.2487C30.5822 21.8486 28.5797 21.3819 26.7455 20.7796C26.6152 15.0218 26.702 9.25859 26.6803 3.50081C26.6858 2.4426 26.702 1.38439 26.7183 0.326172Z" fill="#19303E"/>
<path d="M25.2873 23.9749C28.0386 23.0524 31.2404 25.1362 31.4792 28.0287C31.8699 30.5901 29.8132 33.195 27.2246 33.3686C24.6632 33.7322 22.0638 31.6646 21.9227 29.0706C21.6459 26.8457 23.1654 24.6316 25.2873 23.9749Z" fill="#00C6BD"/>
</svg>
