<svg width="71" height="87" viewBox="0 0 71 87" fill="none" xmlns="http://www.w3.org/2000/svg">
<path d="M60.0142 61.2793L35.1554 86.6622L10.2966 61.2793C5.38011 56.259 2.03193 49.8628 0.675485 42.8996C-0.680958 35.9363 0.0152607 28.7187 2.6761 22.1595C5.33694 15.6003 9.8429 9.994 15.6242 6.04964C21.4054 2.10529 28.2023 0 35.1554 0C42.1085 0 48.9054 2.10529 54.6866 6.04964C60.4679 9.994 64.9739 15.6003 67.6347 22.1595C70.2956 28.7187 70.9918 35.9363 69.6353 42.8996C68.2789 49.8628 64.9307 56.259 60.0142 61.2793ZM35.1554 43.8734C37.2274 43.8734 39.2145 43.0329 40.6795 41.5369C42.1446 40.041 42.9677 38.012 42.9677 35.8963C42.9677 33.7807 42.1446 31.7517 40.6795 30.2557C39.2145 28.7597 37.2274 27.9193 35.1554 27.9193C33.0835 27.9193 31.0964 28.7597 29.6313 30.2557C28.1662 31.7517 27.3431 33.7807 27.3431 35.8963C27.3431 38.012 28.1662 40.041 29.6313 41.5369C31.0964 43.0329 33.0835 43.8734 35.1554 43.8734Z" fill="#31EB0A"/>
</svg>
