<svg width="44" height="54" viewBox="0 0 44 54" fill="none" xmlns="http://www.w3.org/2000/svg">
<path d="M16.858 24.3945H0.858032V3.0612C0.858032 2.35395 1.13898 1.67568 1.63908 1.17558C2.13918 0.675483 2.81745 0.394531 3.5247 0.394531H40.858C41.5653 0.394531 42.2436 0.675483 42.7436 1.17558C43.2437 1.67568 43.5247 2.35395 43.5247 3.0612V51.0612C43.5247 51.7684 43.2437 52.4467 42.7436 52.9468C42.2436 53.4469 41.5653 53.7279 40.858 53.7279H3.5247C2.81745 53.7279 2.13918 53.4469 1.63908 52.9468C1.13898 52.4467 0.858032 51.7684 0.858032 51.0612V29.7279H16.858V37.7279L30.1914 27.0612L16.858 16.3945V24.3945Z" fill="white"/>
</svg>
