<svg width="69" height="16" viewBox="0 0 69 16" fill="none" xmlns="http://www.w3.org/2000/svg">
<g opacity="0.4">
<path d="M0.152344 8.02508C0.152344 11.9711 3.42673 15.3295 7.45674 15.3295C11.4868 15.3295 14.7611 12.0551 14.7611 8.02508C14.7611 3.9111 11.5707 0.636719 7.45674 0.636719C3.42673 0.636719 0.152344 3.9111 0.152344 8.02508Z" fill="#012239"/>
<path d="M27.1864 8.02508C27.1864 11.9711 30.4608 15.3295 34.4908 15.3295C38.5208 15.3295 41.7952 12.0551 41.7952 8.02508C41.7952 3.9111 38.6047 0.636719 34.4908 0.636719C30.4608 0.636719 27.1864 3.9111 27.1864 8.02508Z" fill="#012239"/>
<path d="M54.2204 8.02508C54.2204 11.9711 57.4948 15.3295 61.5248 15.3295C65.5548 15.3295 68.8292 12.0551 68.8292 8.02508C68.8292 3.9111 65.6388 0.636719 61.5248 0.636719C57.4948 0.636719 54.2204 3.9111 54.2204 8.02508Z" fill="#012239"/>
</g>
</svg>
