<svg width="58" height="64" viewBox="0 0 58 64" fill="none" xmlns="http://www.w3.org/2000/svg">
<path d="M0.9375 34.9242H18.4375V29.0908H0.9375V2.39168C0.937543 2.13826 1.00362 1.88923 1.12922 1.66913C1.25482 1.44903 1.43561 1.26546 1.65377 1.13651C1.87192 1.00756 2.11991 0.937684 2.3733 0.933768C2.62668 0.929852 2.87671 0.992031 3.09875 1.11418L56.9462 30.73C57.1749 30.8559 57.3656 31.0408 57.4984 31.2656C57.6311 31.4903 57.7012 31.7465 57.7012 32.0075C57.7012 32.2685 57.6311 32.5248 57.4984 32.7495C57.3656 32.9742 57.1749 33.1591 56.9462 33.285L3.09875 62.9008C2.87671 63.023 2.62668 63.0852 2.3733 63.0812C2.11991 63.0773 1.87192 63.0075 1.65377 62.8785C1.43561 62.7496 1.25482 62.566 1.12922 62.3459C1.00362 62.1258 0.937543 61.8768 0.9375 61.6233V34.9242Z" fill="white"/>
</svg>
