<svg width="49" height="55" viewBox="0 0 49 55" fill="none" xmlns="http://www.w3.org/2000/svg">
<path d="M37.3574 38.2474H42.6907V6.2474H16.024V11.5807H37.3574V38.2474ZM37.3574 43.5807V51.5807C37.3574 53.0527 36.1574 54.2474 34.6721 54.2474H2.70938C2.35772 54.2495 2.00911 54.1821 1.68357 54.0491C1.35804 53.916 1.062 53.72 0.812471 53.4722C0.562938 53.2244 0.364829 52.9297 0.229526 52.6051C0.0942228 52.2805 0.0243928 51.9324 0.0240479 51.5807L0.0320479 14.2474C0.0320479 12.7754 1.23205 11.5807 2.71738 11.5807H10.6907V3.58073C10.6907 2.87349 10.9717 2.19521 11.4718 1.69511C11.9719 1.19501 12.6501 0.914063 13.3574 0.914062H45.3574C46.0646 0.914063 46.7429 1.19501 47.243 1.69511C47.7431 2.19521 48.024 2.87349 48.024 3.58073V40.9141C48.024 41.6213 47.7431 42.2996 47.243 42.7997C46.7429 43.2998 46.0646 43.5807 45.3574 43.5807H37.3574ZM10.6907 38.2474V43.5807H16.024V46.2474H21.3574V43.5807H22.6907C24.4588 43.5807 26.1545 42.8784 27.4048 41.6281C28.655 40.3779 29.3574 38.6822 29.3574 36.9141C29.3574 35.146 28.655 33.4503 27.4048 32.2C26.1545 30.9498 24.4588 30.2474 22.6907 30.2474H14.6907C14.3371 30.2474 13.998 30.1069 13.7479 29.8569C13.4979 29.6068 13.3574 29.2677 13.3574 28.9141C13.3574 28.5604 13.4979 28.2213 13.7479 27.9713C13.998 27.7212 14.3371 27.5807 14.6907 27.5807H26.6907V22.2474H21.3574V19.5807H16.024V22.2474H14.6907C12.9226 22.2474 11.2269 22.9498 9.97667 24.2C8.72643 25.4503 8.02405 27.146 8.02405 28.9141C8.02405 30.6822 8.72643 32.3779 9.97667 33.6281C11.2269 34.8784 12.9226 35.5807 14.6907 35.5807H22.6907C23.0443 35.5807 23.3835 35.7212 23.6335 35.9713C23.8836 36.2213 24.024 36.5604 24.024 36.9141C24.024 37.2677 23.8836 37.6068 23.6335 37.8569C23.3835 38.1069 23.0443 38.2474 22.6907 38.2474H10.6907Z" fill="white"/>
</svg>
