<svg width="55" height="55" viewBox="0 0 55 55" fill="none" xmlns="http://www.w3.org/2000/svg">
<path d="M46.4583 54.5065H8.54163C6.38674 54.5065 4.32012 53.6505 2.79638 52.1268C1.27265 50.603 0.416626 48.5364 0.416626 46.3815V3.04818C0.416626 2.32988 0.701967 1.64101 1.20988 1.1331C1.71779 0.625185 2.40666 0.339844 3.12496 0.339844H41.0416C41.7599 0.339844 42.4488 0.625185 42.9567 1.1331C43.4646 1.64101 43.75 2.32988 43.75 3.04818V35.5482H54.5833V46.3815C54.5833 48.5364 53.7273 50.603 52.2035 52.1268C50.6798 53.6505 48.6132 54.5065 46.4583 54.5065ZM43.75 40.9648V46.3815C43.75 47.0998 44.0353 47.7887 44.5432 48.2966C45.0511 48.8045 45.74 49.0898 46.4583 49.0898C47.1766 49.0898 47.8655 48.8045 48.3734 48.2966C48.8813 47.7887 49.1666 47.0998 49.1666 46.3815V40.9648H43.75ZM11.25 13.8815V19.2982H32.9166V13.8815H11.25ZM11.25 24.7148V30.1315H32.9166V24.7148H11.25ZM11.25 35.5482V40.9648H24.7916V35.5482H11.25Z" fill="#99A7B0"/>
</svg>
