<svg width="201" height="101" viewBox="0 0 201 101" fill="none" xmlns="http://www.w3.org/2000/svg">
<line x1="0.5" y1="48.8818" x2="200.5" y2="48.8818" stroke="#CCD3D7" stroke-width="5"/>
<circle cx="100.5" cy="50.3379" r="47.5" fill="white" stroke="#CCD3D7" stroke-width="5"/>
<path opacity="0.4" d="M73.18 50.6879C73.18 54.7129 74.545 58.0379 77.24 60.6979C79.935 63.3229 83.26 64.6529 87.18 64.6529C91.1 64.6529 94.425 63.3229 97.19 60.6279C99.955 57.9329 101.32 54.5729 101.32 50.5829C101.32 46.5929 99.955 43.2679 97.225 40.5729C94.53 37.8779 91.205 36.5479 87.285 36.5479C83.4 36.5479 80.075 37.9129 77.31 40.6429C74.545 43.3729 73.18 46.7329 73.18 50.6879ZM87.25 60.6629C84.555 60.6629 82.315 59.6829 80.46 57.7229C78.605 55.7629 77.695 53.3829 77.695 50.5829C77.695 47.7829 78.605 45.4029 80.46 43.4779C82.315 41.5179 84.555 40.5379 87.25 40.5379C89.91 40.5379 92.15 41.5179 94.005 43.4779C95.86 45.4029 96.805 47.7829 96.805 50.5829C96.805 53.3829 95.86 55.7629 94.005 57.7229C92.15 59.6829 89.91 60.6629 87.25 60.6629ZM106.864 64.3379H111.169V53.9429H116.384L122.334 64.3379H127.199L120.689 53.2079C124.364 51.9829 126.499 49.1829 126.499 45.3679C126.499 42.9529 125.729 40.9579 124.224 39.3479C122.719 37.7379 120.339 36.9329 117.154 36.9329H106.864V64.3379ZM111.169 40.9229H116.699C121.179 40.9229 122.124 43.3729 122.124 45.4729C122.124 47.9929 120.514 50.0579 116.699 50.0579H111.169V40.9229Z" fill="#012239"/>
</svg>
