<svg width="44" height="57" viewBox="0 0 44 57" fill="none" xmlns="http://www.w3.org/2000/svg">
<path d="M43.5247 56.2188H0.858032V50.8854C0.858032 47.3492 2.26279 43.9578 4.76327 41.4573C7.26376 38.9568 10.6551 37.5521 14.1914 37.5521H30.1914C33.7276 37.5521 37.119 38.9568 39.6195 41.4573C42.1199 43.9578 43.5247 47.3492 43.5247 50.8854V56.2188ZM22.1914 32.2188C20.0902 32.2188 18.0096 31.8049 16.0684 31.0008C14.1272 30.1967 12.3634 29.0182 10.8777 27.5325C9.39192 26.0467 8.21337 24.2829 7.40929 22.3417C6.60522 20.4005 6.19137 18.3199 6.19137 16.2188C6.19137 14.1176 6.60522 12.037 7.40929 10.0958C8.21337 8.15461 9.39192 6.39078 10.8777 4.90504C12.3634 3.4193 14.1272 2.24075 16.0684 1.43668C18.0096 0.632602 20.0902 0.21875 22.1914 0.21875C26.4348 0.21875 30.5045 1.90446 33.5051 4.90504C36.5057 7.90562 38.1914 11.9753 38.1914 16.2188C38.1914 20.4622 36.5057 24.5319 33.5051 27.5325C30.5045 30.533 26.4348 32.2188 22.1914 32.2188Z" fill="white"/>
</svg>
