<svg width="70" height="71" viewBox="0 0 70 71" fill="none" xmlns="http://www.w3.org/2000/svg">
<path d="M58.3334 64.6719H11.6667V58.8385C11.6667 54.9708 13.2032 51.2615 15.9381 48.5266C18.673 45.7917 22.3823 44.2552 26.2501 44.2552H43.7501C47.6178 44.2552 51.3271 45.7917 54.0621 48.5266C56.797 51.2615 58.3334 54.9708 58.3334 58.8385V64.6719ZM35.0001 38.4219C32.7019 38.4219 30.4263 37.9692 28.3031 37.0898C26.1799 36.2103 24.2507 34.9213 22.6257 33.2962C21.0007 31.6712 19.7116 29.742 18.8322 27.6188C17.9527 25.4956 17.5001 23.22 17.5001 20.9219C17.5001 18.6237 17.9527 16.3481 18.8322 14.2249C19.7116 12.1017 21.0007 10.1725 22.6257 8.54751C24.2507 6.92248 26.1799 5.63344 28.3031 4.75398C30.4263 3.87453 32.7019 3.42187 35.0001 3.42188C39.6414 3.42188 44.0926 5.26562 47.3745 8.54751C50.6563 11.8294 52.5001 16.2806 52.5001 20.9219C52.5001 25.5632 50.6563 30.0144 47.3745 33.2962C44.0926 36.5781 39.6414 38.4219 35.0001 38.4219Z" fill="#99A7B0"/>
</svg>
