<svg width="55" height="55" viewBox="0 0 55 55" fill="none" xmlns="http://www.w3.org/2000/svg">
<path d="M42.9193 39.506L54.3406 50.9247L50.5673 54.698L39.1486 43.2767C34.8999 46.6826 29.6153 48.5351 24.1699 48.5273C10.9219 48.5273 0.169922 37.7753 0.169922 24.5273C0.169922 11.2793 10.9219 0.527344 24.1699 0.527344C37.4179 0.527344 48.1699 11.2793 48.1699 24.5273C48.1777 29.9727 46.3252 35.2573 42.9193 39.506ZM37.5699 37.5273C40.9542 34.047 42.8442 29.3818 42.8366 24.5273C42.8366 14.2127 34.4819 5.86068 24.1699 5.86068C13.8553 5.86068 5.50326 14.2127 5.50326 24.5273C5.50326 34.8393 13.8553 43.194 24.1699 43.194C29.0244 43.2017 33.6896 41.3116 37.1699 37.9273L37.5699 37.5273Z" fill="#012239"/>
</svg>
