<svg width="52" height="55" viewBox="0 0 52 55" fill="none" xmlns="http://www.w3.org/2000/svg">
<path d="M20.7355 1.39911C24.3326 0.644805 28.0469 0.642989 31.6448 1.39378C31.8845 2.97588 32.4776 4.48362 33.3802 5.80492C34.2828 7.12623 35.4715 8.22713 36.8581 9.02578C38.2436 9.8272 39.7919 10.306 41.388 10.4265C42.984 10.547 44.5867 10.3061 46.0768 9.72178C48.5255 12.4633 50.3804 15.6819 51.5248 19.1751C50.275 20.174 49.2664 21.4416 48.5739 22.8839C47.8814 24.3261 47.5228 25.9059 47.5248 27.5058C47.5248 30.8764 49.0875 33.8818 51.5301 35.8364C50.379 39.3268 48.5218 42.5428 46.0741 45.2845C44.5844 44.7006 42.9822 44.4599 41.3867 44.5804C39.7911 44.7009 38.2433 45.1794 36.8581 45.9804C35.4727 46.7789 34.2848 47.8791 33.3828 49.1994C32.4807 50.5197 31.8876 52.0262 31.6474 53.6071C28.0507 54.3632 24.3364 54.3668 20.7381 53.6178C20.4996 52.0343 19.9069 50.5249 19.0043 49.2022C18.1017 47.8794 16.9123 46.7773 15.5248 45.9778C14.1391 45.1768 12.5907 44.6985 10.9946 44.5785C9.39859 44.4584 7.79603 44.6997 6.30612 45.2845C3.85705 42.5422 2.00213 39.3226 0.858117 35.8284C2.10716 34.8301 3.11534 33.5633 3.80781 32.1221C4.50028 30.6808 4.85926 29.1021 4.85812 27.5031C4.85943 25.9028 4.5 24.3228 3.80656 22.8805C3.11313 21.4382 2.10351 20.1708 0.852783 19.1724C2.0039 15.6821 3.8611 12.466 6.30878 9.72445C7.79852 10.3083 9.4007 10.549 10.9962 10.4285C12.5918 10.308 14.1396 9.82945 15.5248 9.02845C16.9102 8.23004 18.0981 7.12985 19.0001 5.80953C19.9022 4.48922 20.4953 2.98269 20.7355 1.40178V1.39911ZM26.1915 35.5058C28.3132 35.5058 30.348 34.6629 31.8483 33.1626C33.3486 31.6623 34.1915 29.6275 34.1915 27.5058C34.1915 25.384 33.3486 23.3492 31.8483 21.8489C30.348 20.3486 28.3132 19.5058 26.1915 19.5058C24.0697 19.5058 22.0349 20.3486 20.5346 21.8489C19.0343 23.3492 18.1915 25.384 18.1915 27.5058C18.1915 29.6275 19.0343 31.6623 20.5346 33.1626C22.0349 34.6629 24.0697 35.5058 26.1915 35.5058Z" fill="white"/>
</svg>
