<svg width="50" height="33" viewBox="0 0 50 33" fill="none" xmlns="http://www.w3.org/2000/svg">
<path d="M6.61677 0.415103C4.55322 0.381135 2.48604 0.411463 0.421284 0.400545V22.9649C17.1783 22.9721 20.5921 22.9503 37.3491 22.9758C35.7454 24.6633 34.0264 26.2464 32.442 27.9496C33.8953 29.3714 35.2819 30.8939 36.7959 32.2344C40.9315 28.1207 45.0598 23.9972 49.1699 19.858C45.0404 15.7176 40.9303 11.5468 36.7474 7.46585C35.3147 8.88764 33.8783 10.3082 32.4687 11.7519C33.9742 13.4757 35.766 15.0467 37.3503 16.7427C22.6653 16.7585 21.3224 16.767 6.63739 16.7378C6.61555 8.46668 6.6568 8.68505 6.61677 0.415103Z" fill="#012239"/>
</svg>
