<svg width="55" height="51" viewBox="0 0 55 51" fill="none" xmlns="http://www.w3.org/2000/svg">
<path d="M27.5028 4.77966C33.8647 -0.932216 43.6959 -0.742632 49.8249 5.39716C55.9511 11.5397 56.1624 21.3222 50.4641 27.703L27.4974 50.7022L4.53614 27.703C-1.16219 21.3222 -0.948235 11.5234 5.17531 5.39716C11.3097 -0.734507 21.122 -0.940341 27.5028 4.77966ZM45.9899 9.22404C41.9274 5.15612 35.3732 4.99091 31.1211 8.80966L27.5055 12.0542L23.8872 8.81237C19.6216 4.9882 13.0809 5.15612 9.0076 9.22945C4.97218 13.2649 4.76906 19.7242 8.4876 23.9926L27.5001 43.0349L46.5126 23.9953C50.2339 19.7242 50.0307 13.273 45.9899 9.22404Z" fill="#082141"/>
</svg>
