<svg width="54" height="54" viewBox="0 0 54 54" fill="none" xmlns="http://www.w3.org/2000/svg">
<path d="M27.0247 0.375C41.7527 0.375 53.6914 12.3137 53.6914 27.0417C53.6914 41.7697 41.7527 53.7083 27.0247 53.7083C12.2967 53.7083 0.358032 41.7697 0.358032 27.0417C0.358032 12.3137 12.2967 0.375 27.0247 0.375ZM16.358 29.7083L5.8567 29.711C6.45081 34.4102 8.59118 38.7783 11.9407 42.1274C15.2903 45.4765 19.6587 47.6162 24.358 48.2097V37.7083C22.2363 37.7083 20.2015 36.8655 18.7012 35.3652C17.2009 33.8649 16.358 31.8301 16.358 29.7083ZM48.1927 29.711L37.6914 29.7083C37.6914 31.8301 36.8485 33.8649 35.3482 35.3652C33.8479 36.8655 31.8131 37.7083 29.6914 37.7083L29.694 48.2097C34.3929 47.6157 38.7607 45.4757 42.1097 42.1267C45.4587 38.7777 47.5987 34.4098 48.1927 29.711ZM27.0247 5.70833C21.8284 5.70842 16.8108 7.60483 12.9134 11.0417C9.01599 14.4785 6.5068 19.2195 5.8567 24.375H16.358C16.358 23.6678 16.639 22.9895 17.1391 22.4894C17.6392 21.9893 18.3175 21.7083 19.0247 21.7083H35.0247C35.7319 21.7083 36.4102 21.9893 36.9103 22.4894C37.4104 22.9895 37.6914 23.6678 37.6914 24.375H48.1927C47.5426 19.2195 45.0334 14.4785 41.136 11.0417C37.2386 7.60483 32.221 5.70842 27.0247 5.70833Z" fill="white"/>
</svg>
