<svg width="37" height="30" viewBox="0 0 37 30" fill="none" xmlns="http://www.w3.org/2000/svg">
<path d="M18.7284 0C27.7151 0 35.1918 6.46667 36.7601 15C35.1934 23.5333 27.7151 30 18.7284 30C9.74178 30 2.26511 23.5333 0.696777 15C2.26344 6.46667 9.74178 0 18.7284 0ZM18.7284 26.6667C22.1276 26.6659 25.4258 25.5114 28.0832 23.3919C30.7407 21.2725 32.6 18.3138 33.3568 15C32.5972 11.6888 30.7367 8.73334 28.0795 6.61671C25.4223 4.50008 22.1256 3.34755 18.7284 3.34755C15.3313 3.34755 12.0346 4.50008 9.3774 6.61671C6.72021 8.73334 4.85972 11.6888 4.10011 15C4.85694 18.3138 6.71623 21.2725 9.37368 23.3919C12.0311 25.5114 15.3293 26.6659 18.7284 26.6667ZM18.7284 22.5C16.7393 22.5 14.8317 21.7098 13.4251 20.3033C12.0186 18.8968 11.2284 16.9891 11.2284 15C11.2284 13.0109 12.0186 11.1032 13.4251 9.6967C14.8317 8.29018 16.7393 7.5 18.7284 7.5C20.7176 7.5 22.6252 8.29018 24.0317 9.6967C25.4383 11.1032 26.2284 13.0109 26.2284 15C26.2284 16.9891 25.4383 18.8968 24.0317 20.3033C22.6252 21.7098 20.7176 22.5 18.7284 22.5ZM18.7284 19.1667C19.8335 19.1667 20.8933 18.7277 21.6747 17.9463C22.4561 17.1649 22.8951 16.1051 22.8951 15C22.8951 13.8949 22.4561 12.8351 21.6747 12.0537C20.8933 11.2723 19.8335 10.8333 18.7284 10.8333C17.6234 10.8333 16.5636 11.2723 15.7822 12.0537C15.0008 12.8351 14.5618 13.8949 14.5618 15C14.5618 16.1051 15.0008 17.1649 15.7822 17.9463C16.5636 18.7277 17.6234 19.1667 18.7284 19.1667Z" fill="#00C6BD"/>
</svg>
