<svg width="37" height="22" viewBox="0 0 37 22" fill="none" xmlns="http://www.w3.org/2000/svg">
<path d="M14.2584 21.2749L11.0401 20.4116L12.3518 15.5133C10.3884 14.7892 8.56364 13.7339 6.95677 12.3933L3.36844 15.9833L1.0101 13.6249L4.6001 10.0366C2.57356 7.60955 1.21192 4.69789 0.648438 1.58661L3.92844 0.988281C5.19344 7.99161 11.3201 13.3049 18.6884 13.3049C26.0551 13.3049 32.1834 7.99161 33.4484 0.988281L36.7284 1.58495C36.1657 4.69664 34.8046 7.6089 32.7784 10.0366L36.3668 13.6249L34.0084 15.9833L30.4201 12.3933C28.8132 13.7339 26.9885 14.7892 25.0251 15.5133L26.3368 20.4133L23.1184 21.2749L21.8051 16.3749C19.7424 16.7284 17.6345 16.7284 15.5718 16.3749L14.2584 21.2749Z" fill="black"/>
</svg>
